# xmcd
#
# Track frame offsets:
#	150
#	15395
#	29025
#	46117
#	59725
#	76612
#	90075
#	103425
#	113962
#	132325
#	144562
#	157312
#	172275
#	183100
#	197562
#	212475
#	224220
#	235670
#
# Disc length: 3349 seconds
#
# Revision: 1
# Processed by: cddbd v1.5PL3 Copyright (c) Steve Scherf et al.
# Submitted via: EasyCDDAExtractor 6.5.2.1
#
DISCID=040d1312
DTITLE=Various Artist - Achy Breaky Heart - 18 Pop Country Hits
DYEAR=1900
DGENRE=Country
TTITLE0=Achy Breaky Heart - Various Artists
TTITLE1=Who's Lonely Now - Various Artists
TTITLE2=Love On Arrival - Various Artists
TTITLE3=Love Without End - Various Artists
TTITLE4=Help Me Hold On - Various Artists
TTITLE5=Southern Star - Various Artists
TTITLE6=Doing The Best I Can - Various Artists
TTITLE7=I've Cried My Last Tear For You - Various Artists
TTITLE8=Coming Home - Various Artists
TTITLE9=Walkin' Away - Various Artists
TTITLE10=The Dance - Various Artists
TTITLE11=Hard Rock Bottom Of Your Heart - Various Artists
TTITLE12=No Matter How High - Various Artists
TTITLE13=Nobody's Home - Various Artists
TTITLE14=Five Minutes - Various Artists
TTITLE15=Killing Time - Various Artists
TTITLE16=It Ain't Nothing - Various Artists
TTITLE17=On Second Thoughts - Various Artists
EXTD=
EXTT0=
EXTT1=
EXTT2=
EXTT3=
EXTT4=
EXTT5=
EXTT6=
EXTT7=
EXTT8=
EXTT9=
EXTT10=
EXTT11=
EXTT12=
EXTT13=
EXTT14=
EXTT15=
EXTT16=
EXTT17=
PLAYORDER=
